<svg xmlns="http://www.w3.org/2000/svg" width="388" height="96" viewBox="0 0 388 96" role="img" aria-label="DISKMON">
  <title>DISKMON</title>
  <defs>
    <linearGradient id="g" x1="0" y1="0" x2="1" y2="1">
      <stop offset="0%" stop-color="#00FFCC"/>
      <stop offset="55%" stop-color="#1FB6FF"/>
      <stop offset="100%" stop-color="#8A2BE2"/>
    </linearGradient>
    <filter id="glow" x="-30%" y="-30%" width="160%" height="160%">
      <feGaussianBlur stdDeviation="3" result="b"/>
      <feMerge><feMergeNode in="b"/><feMergeNode in="SourceGraphic"/></feMerge>
    </filter>
  </defs>
  <g fill="url(#g)" filter="url(#glow)">
    <path d="M58 0 L58 720 L658 720 Q691 720 718 704 Q746 688 762 660 Q778 633 778 600 L778 120 Q778 87 762 59 Q746 32 718 16 Q691 0 658 0 L58 0 M178 81 L658 81 Q674 81 685 92 Q697 104 697 120 L697 600 Q697 616 685 627 Q674 639 658 639 L178 639 Q162 639 150 627 Q139 616 139 600 L139 120 Q139 104 150 92 Q162 81 178 81 Z" transform="translate(36.00,70.0) scale(0.05104,-0.05104)"/>
    <path d="M66 0 L66 720 L148 720 L148 0 L66 0 Z" transform="translate(86.56,70.0) scale(0.05104,-0.05104)"/>
    <path d="M171 0 Q138 0 110 16 Q83 32 67 59 Q51 87 51 120 L51 148 L132 148 L132 120 Q132 104 143 92 Q155 81 171 81 L651 81 Q667 81 678 92 Q690 104 690 120 L690 281 Q690 297 678 308 Q667 319 651 319 L171 319 Q138 319 110 335 Q83 352 67 379 Q51 406 51 439 L51 600 Q51 633 67 660 Q83 688 110 704 Q138 720 171 720 L651 720 Q684 720 711 704 Q739 688 755 660 Q771 633 771 600 L771 572 L690 572 L690 600 Q690 616 678 627 Q667 639 651 639 L171 639 Q155 639 143 627 Q132 616 132 600 L132 439 Q132 423 143 412 Q155 401 171 401 L651 401 Q684 401 711 384 Q739 368 755 341 Q771 314 771 281 L771 120 Q771 87 755 59 Q739 32 711 16 Q684 0 651 0 L171 0 Z" transform="translate(105.49,70.0) scale(0.05104,-0.05104)"/>
    <path d="M57 0 L57 720 L139 720 L139 401 L371 401 L639 720 L743 720 L743 719 L442 360 L744 1 L744 0 L639 0 L371 319 L139 319 L139 0 L57 0 Z" transform="translate(155.44,70.0) scale(0.05104,-0.05104)"/>
    <path d="M56 0 L56 720 L167 720 L466 364 L765 720 L876 720 L876 0 L795 0 L795 628 L466 237 L137 628 L137 0 L56 0 Z" transform="translate(204.11,70.0) scale(0.05104,-0.05104)"/>
    <path d="M174 0 Q141 0 113 16 Q86 32 70 59 Q54 87 54 120 L54 600 Q54 633 70 660 Q86 688 113 704 Q141 720 174 720 L654 720 Q687 720 714 704 Q742 688 758 660 Q774 633 774 600 L774 120 Q774 87 758 59 Q742 32 714 16 Q687 0 654 0 L174 0 M174 81 L654 81 Q670 81 681 92 Q693 104 693 120 L693 600 Q693 616 681 627 Q670 639 654 639 L174 639 Q158 639 146 627 Q135 616 135 600 L135 120 Q135 104 146 92 Q158 81 174 81 Z" transform="translate(259.48,70.0) scale(0.05104,-0.05104)"/>
    <path d="M56 0 L56 720 L167 720 L695 92 L695 720 L776 720 L776 0 L665 0 L137 628 L137 0 L56 0 Z" transform="translate(309.74,70.0) scale(0.05104,-0.05104)"/>
  </g>
</svg>
